<svg width="36" height="36" viewBox="0 0 36 36" fill="none" xmlns="http://www.w3.org/2000/svg">
<path d="M17.9999 26.9648C22.943 26.9648 26.9646 22.9433 26.9646 18.0001C26.9646 13.0569 22.943 9.0354 17.9999 9.0354C13.0567 9.0354 9.03516 13.0569 9.03516 18.0001C9.03516 22.9433 13.0568 26.9648 17.9999 26.9648ZM17.9999 10.0901C22.3614 10.0901 25.9099 13.6385 25.9099 18.0001C25.9099 22.3617 22.3614 25.9101 17.9999 25.9101C13.6382 25.9101 10.0898 22.3617 10.0898 18.0001C10.0898 13.6385 13.6383 10.0901 17.9999 10.0901Z" fill="#97A7BB"/>
<path d="M17.9999 24.8553C21.78 24.8553 24.8553 21.78 24.8553 17.9999C24.8553 14.2198 21.78 11.1445 17.9999 11.1445C14.2198 11.1445 11.1445 14.2198 11.1445 17.9999C11.1445 21.78 14.2199 24.8553 17.9999 24.8553ZM23.8006 17.9999C23.8006 21.1984 21.1984 23.8006 17.9999 23.8006C16.546 23.8006 15.3632 22.6178 15.3632 21.1639C15.3632 19.71 16.546 18.5272 17.9999 18.5272C20.0353 18.5272 21.6912 16.8713 21.6912 14.8359C21.6912 14.2723 21.5638 13.738 21.3369 13.2596C22.8256 14.3107 23.8006 16.0431 23.8006 17.9999ZM17.9999 12.1992C19.4538 12.1992 20.6366 13.382 20.6366 14.8359C20.6366 16.2898 19.4538 17.4726 17.9999 17.4726C15.9644 17.4726 14.3085 19.1285 14.3085 21.1639C14.3085 21.7275 14.436 22.2618 14.6628 22.7402C13.1742 21.6891 12.1992 19.9567 12.1992 17.9999C12.1992 14.8014 14.8014 12.1992 17.9999 12.1992Z" fill="#97A7BB"/>
<path d="M18 16.418C18.8723 16.418 19.582 15.7082 19.582 14.8359C19.582 13.9636 18.8723 13.2539 18 13.2539C17.1276 13.2539 16.418 13.9636 16.418 14.8359C16.418 15.7082 17.1277 16.418 18 16.418ZM18 14.3086C18.2908 14.3086 18.5273 14.5451 18.5273 14.8359C18.5273 15.1267 18.2908 15.3633 18 15.3633C17.7092 15.3633 17.4727 15.1267 17.4727 14.8359C17.4727 14.5451 17.7093 14.3086 18 14.3086Z" fill="#97A7BB"/>
<path d="M18 19.582C17.1276 19.582 16.418 20.2918 16.418 21.1641C16.418 22.0364 17.1276 22.7461 18 22.7461C18.8723 22.7461 19.582 22.0364 19.582 21.1641C19.582 20.2918 18.8724 19.582 18 19.582ZM18 21.6914C17.7092 21.6914 17.4727 21.4549 17.4727 21.1641C17.4727 20.8733 17.7092 20.6367 18 20.6367C18.2908 20.6367 18.5273 20.8733 18.5273 21.1641C18.5273 21.4549 18.2908 21.6914 18 21.6914Z" fill="#97A7BB"/>
<path d="M2.10938 11.6364V24.3637C2.10938 24.5036 2.16492 24.6376 2.26385 24.7366L11.2635 33.7363C11.3624 33.8351 11.4965 33.8907 11.6364 33.8907H24.3637C24.5036 33.8907 24.6376 33.8351 24.7366 33.7363L33.7363 24.7366C33.8351 24.6377 33.8907 24.5036 33.8907 24.3637V11.6364C33.8907 11.4965 33.8351 11.3624 33.7363 11.2634L24.7366 2.26385C24.6377 2.16492 24.5036 2.10938 24.3637 2.10938H11.6364C11.4966 2.10938 11.3624 2.16492 11.2636 2.26378L2.26385 11.2635C2.16499 11.3624 2.10938 11.4965 2.10938 11.6364ZM7.32958 22.9906L13.0094 28.6704L11.4512 32.4324L3.56763 24.5488L7.32958 22.9906ZM13.85 7.98066H22.1502L28.0195 13.85V22.1502L22.1502 28.0195H13.85L7.98066 22.1502V13.85L13.85 7.98066ZM13.9838 29.0741H22.0163L23.5746 32.836H12.4255L13.9838 29.0741ZM22.9906 28.6706L28.6704 22.9907L32.4324 24.549L24.5489 32.4324L22.9906 28.6706ZM29.0741 22.0164V13.9838L32.836 12.4255V23.5745L29.0741 22.0164ZM28.6706 13.0095L22.9907 7.32965L24.549 3.5677L32.4325 11.4512L28.6706 13.0095ZM22.0164 6.92599H13.9839L12.4256 3.16405H23.5746L22.0164 6.92599ZM13.0095 7.32958L7.32965 13.0094L3.56763 11.4512L11.4512 3.5677L13.0095 7.32958ZM6.92599 13.9837V22.0162L3.16405 23.5745V12.4255L6.92599 13.9837Z" fill="#97A7BB"/>
<path d="M35.8456 10.3897L25.6104 0.154474C25.5114 0.055546 25.3773 0 25.2374 0H10.7626C10.6227 0 10.4886 0.055546 10.3897 0.154404L6.01781 4.5263C5.81187 4.73231 5.81187 5.06615 6.01781 5.27209C6.22375 5.47796 6.55766 5.47796 6.76354 5.27209L10.981 1.05467H25.019L34.9454 10.981V25.019L25.019 34.9453H10.981L1.05467 25.019V10.981L5.27209 6.76368C5.47803 6.55766 5.47803 6.22382 5.27209 6.01788C5.06615 5.81201 4.73224 5.81201 4.52637 6.01788L0.154474 10.3897C0.055546 10.4886 0 10.6227 0 10.7626V25.2374C0 25.3773 0.055546 25.5114 0.154474 25.6104L10.3897 35.8456C10.4886 35.9445 10.6227 36 10.7626 36H25.2374C25.3773 36 25.5114 35.9445 25.6104 35.8456L35.8456 25.6104C35.9445 25.5114 36 25.3774 36 25.2374V10.7626C36 10.6227 35.9445 10.4886 35.8456 10.3897Z" fill="#97A7BB"/>
</svg>
