<svg width="32" height="32" viewBox="0 0 32 32" fill="none" xmlns="http://www.w3.org/2000/svg">
<path d="M13 31C7.3435 31 4.5145 31 2.758 29.242C1 27.4855 1 26.1565 1 20.5M31 20.5C31 26.1565 31 27.4855 29.242 29.242C27.4855 31 24.6565 31 19 31M19 1C24.6565 1 27.4855 1 29.242 2.758C31 4.5145 31 5.8435 31 11.5M13 1C7.3435 1 4.5145 1 2.758 2.758C1 4.5145 1 5.8435 1 11.5" stroke="#B8C9DD" stroke-width="1.5" stroke-linecap="round"/>
<path d="M6.838 19.09C5.9455 18.055 5.5 17.5375 5.5 16C5.5 14.4625 5.9455 13.945 6.838 12.91C8.62 10.843 11.608 8.5 16 8.5C20.3905 8.5 23.38 10.843 25.162 12.91C26.0545 13.945 26.5 14.4625 26.5 16C26.5 17.5375 26.0545 18.055 25.162 19.09C23.38 21.157 20.392 23.5 16 23.5C11.6095 23.5 8.62 21.157 6.838 19.09Z" stroke="#B8C9DD" stroke-width="1.5"/>
<path d="M16 19C17.6569 19 19 17.6569 19 16C19 14.3431 17.6569 13 16 13C14.3431 13 13 14.3431 13 16C13 17.6569 14.3431 19 16 19Z" stroke="#B8C9DD" stroke-width="1.5"/>
</svg>
