<svg width="21" height="20" viewBox="0 0 21 20" fill="none" xmlns="http://www.w3.org/2000/svg">
<path d="M15.5612 0H4.6263C3.39981 0.00155802 2.22399 0.489471 1.35673 1.35673C0.489471 2.22399 0.00155802 3.39981 0 4.6263L0 12.1966C0.00155802 13.4231 0.489471 14.5989 1.35673 15.4662C2.22399 16.3334 3.39981 16.8213 4.6263 16.8229H5.83587L9.28456 19.7064C9.51153 19.8961 9.79793 20 10.0937 20C10.3896 20 10.676 19.8961 10.9029 19.7064L14.3516 16.8229H15.5612C16.7877 16.8213 17.9635 16.3334 18.8308 15.4662C19.698 14.5989 20.1859 13.4231 20.1875 12.1966V4.6263C20.1859 3.39981 19.698 2.22399 18.8308 1.35673C17.9635 0.489471 16.7877 0.00155802 15.5612 0ZM17.664 12.1966C17.664 12.7543 17.4425 13.2892 17.0481 13.6836C16.6538 14.0779 16.1189 14.2995 15.5612 14.2995H13.8932C13.5973 14.2997 13.3109 14.4039 13.084 14.5939L10.0937 17.0938L7.10347 14.5939C6.87661 14.4039 6.59019 14.2997 6.29429 14.2995H4.6263C4.06858 14.2995 3.53371 14.0779 3.13935 13.6836C2.74499 13.2892 2.52344 12.7543 2.52344 12.1966V4.6263C2.52344 4.06858 2.74499 3.53371 3.13935 3.13935C3.53371 2.74499 4.06858 2.52344 4.6263 2.52344H15.5612C16.1189 2.52344 16.6538 2.74499 17.0481 3.13935C17.4425 3.53371 17.664 4.06858 17.664 4.6263V12.1966Z" fill="#B2CB5B"/>
<path d="M6.30859 7.57031H8.83203C9.16666 7.57031 9.48758 7.43738 9.7242 7.20076C9.96082 6.96414 10.0937 6.64322 10.0937 6.30859C10.0937 5.97396 9.96082 5.65304 9.7242 5.41642C9.48758 5.17981 9.16666 5.04688 8.83203 5.04688H6.30859C5.97396 5.04688 5.65304 5.17981 5.41642 5.41642C5.17981 5.65304 5.04688 5.97396 5.04688 6.30859C5.04688 6.64322 5.17981 6.96414 5.41642 7.20076C5.65304 7.43738 5.97396 7.57031 6.30859 7.57031Z" fill="#B2CB5B"/>
<path d="M13.8789 9.25244H6.30859C5.97396 9.25244 5.65304 9.38537 5.41642 9.62199C5.17981 9.85861 5.04688 10.1795 5.04688 10.5142C5.04688 10.8488 5.17981 11.1697 5.41642 11.4063C5.65304 11.6429 5.97396 11.7759 6.30859 11.7759H13.8789C14.2135 11.7759 14.5345 11.6429 14.7711 11.4063C15.0077 11.1697 15.1406 10.8488 15.1406 10.5142C15.1406 10.1795 15.0077 9.85861 14.7711 9.62199C14.5345 9.38537 14.2135 9.25244 13.8789 9.25244Z" fill="#B2CB5B"/>
</svg>
