<svg width="20" height="20" viewBox="0 0 20 20" fill="none" xmlns="http://www.w3.org/2000/svg">
<path d="M6.66667 10C9.42417 10 11.6667 7.7575 11.6667 5C11.6667 2.2425 9.42417 0 6.66667 0C3.90917 0 1.66667 2.2425 1.66667 5C1.66667 7.7575 3.90917 10 6.66667 10ZM6.66667 1.66667C8.505 1.66667 10 3.16167 10 5C10 6.83833 8.505 8.33333 6.66667 8.33333C4.82833 8.33333 3.33333 6.83833 3.33333 5C3.33333 3.16167 4.82833 1.66667 6.66667 1.66667ZM13.3333 18.3333V19.1667C13.3333 19.6267 12.96 20 12.5 20C12.04 20 11.6667 19.6267 11.6667 19.1667V18.3333C11.6667 15.5758 9.42417 13.3333 6.66667 13.3333C3.90917 13.3333 1.66667 15.5758 1.66667 18.3333V19.1667C1.66667 19.6267 1.29333 20 0.833333 20C0.373333 20 0 19.6267 0 19.1667V18.3333C0 14.6575 2.99083 11.6667 6.66667 11.6667C10.3425 11.6667 13.3333 14.6575 13.3333 18.3333ZM19.7475 8.51417L16.4208 11.7433C15.9367 12.2283 15.2808 12.4992 14.5833 12.4992C13.8858 12.4992 13.23 12.2275 12.7375 11.735L11.095 10.19C10.76 9.875 10.7442 9.3475 11.06 9.01167C11.3758 8.67667 11.9025 8.66083 12.2383 8.97667L13.8983 10.5392C14.2908 10.9308 14.8942 10.9133 15.2508 10.5567L18.5858 7.31833C18.9158 6.9975 19.4433 7.00583 19.7642 7.33583C20.085 7.66583 20.0767 8.19417 19.7467 8.51417H19.7475Z" fill="#B2CB5B"/>
</svg>
