<svg width="20" height="20" viewBox="0 0 20 20" fill="none" xmlns="http://www.w3.org/2000/svg">
<path d="M18.5595 2.65494L15.9045 0L10.6616 5.25126L13.5176 8.1072C12.3702 10.67 10.5946 12.4539 8.11558 13.526L5.25963 10.67L0 15.9045L2.65494 18.5595C3.58459 19.4891 4.8325 20 6.1809 20C12.2529 20 20 12.2529 20 6.1809C20 4.8325 19.4891 3.58459 18.5595 2.65494ZM6.1809 18.325C5.28476 18.325 4.44724 17.99 3.84422 17.3786L2.37018 15.9045L5.25126 13.0235L7.70519 15.4774L8.21608 15.2848C11.5327 14.0201 13.9196 11.6415 15.2931 8.21608L15.5025 7.70519L13.0486 5.24288L15.9296 2.36181L17.4037 3.83585C18.0151 4.44724 18.3501 5.27638 18.3501 6.17253C18.3501 11.3903 11.4238 18.3166 6.20603 18.3166L6.1809 18.325Z" fill="#B2CB5B"/>
</svg>
