<svg width="21" height="20" viewBox="0 0 21 20" fill="none" xmlns="http://www.w3.org/2000/svg">
<path d="M16.9033 0H3.38066C1.51623 0 0 1.51623 0 3.38066V13.5226C0 15.3871 1.51623 16.9033 3.38066 16.9033H5.85108L9.01961 19.5707C9.34246 19.858 9.74729 20.0008 10.1496 20C10.5451 20 10.9364 19.8631 11.2415 19.5909L14.4929 16.9033H16.9042C18.7686 16.9033 20.2848 15.3871 20.2848 13.5226V3.38066C20.2848 1.51623 18.7677 0 16.9033 0ZM18.5936 13.5226C18.5936 14.4549 17.8355 15.213 16.9033 15.213H14.1886C13.9926 15.213 13.8016 15.2814 13.6503 15.4065L10.1251 18.2928L6.70385 15.4116C6.55088 15.2831 6.35818 15.213 6.15872 15.213H3.37982C2.4476 15.213 1.68949 14.4549 1.68949 13.5226V3.38066C1.68949 2.44844 2.4476 1.69033 3.37982 1.69033H16.9025C17.8347 1.69033 18.5928 2.44844 18.5928 3.38066L18.5936 13.5226ZM11.4097 13.9452C11.4097 14.645 10.8418 15.213 10.142 15.213C9.44219 15.213 8.87424 14.645 8.87424 13.9452C8.87424 13.2454 9.44219 12.6775 10.142 12.6775C10.8418 12.6775 11.4097 13.2454 11.4097 13.9452ZM13.4077 5.87475C13.8218 7.47887 13.0451 9.143 11.5602 9.83012C11.3582 9.92393 10.9863 10.371 10.9863 10.8181V10.9872C10.9863 11.4545 10.6085 11.8323 10.1411 11.8323C9.67377 11.8323 9.29598 11.4545 9.29598 10.9872V10.8181C9.29598 9.64841 10.0963 8.64604 10.8494 8.29699C11.4681 8.01048 12.0199 7.26251 11.7715 6.29817C11.6278 5.74375 11.1596 5.27552 10.606 5.13269C10.0625 4.98986 9.53178 5.09635 9.10835 5.42427C8.69084 5.74797 8.45166 6.23563 8.45166 6.76217C8.45166 7.22955 8.07387 7.60734 7.60649 7.60734C7.13911 7.60734 6.76132 7.22955 6.76132 6.76217C6.76132 5.70825 7.23884 4.73377 8.07387 4.08807C8.9072 3.44067 9.98563 3.22431 11.0294 3.49645C12.1771 3.79226 13.1119 4.72532 13.4077 5.87475Z" fill="#B2CB5B"/>
</svg>
